<?xml version="1.0" encoding="UTF-8"?>
<svg id="a" data-name="Layer 1" xmlns="http://www.w3.org/2000/svg" viewBox="0 0 627.33 823.7">
  <path d="M281.85,0c16.41,32.19,29.22,60.22,38.81,82.37,9.06,20.92,13.59,31.39,17.33,40.89,19.65,49.88,20.82,66.65,38.06,80.77,11.27,9.23,14.42,5.2,37.9,15.1,38.16,16.08,74.28,40.15,89.52,80.48,24.03,63.6-10.21,124.58-69.81,150.16l-31.67,10.82c42.04.09,83.95,14.54,108.81,49.69,29.77,42.1,25.53,96.13,4.36,140.99-41.29,87.52-136.49,136.98-227.17,157.83-45.33,10.43-92.42,15.43-139.01,14.48l39.67-15.81c90.93-36.76,240.24-139.23,233.31-250.67-.8-12.88-1.94-34.77-17.39-48.25-23.93-20.86-69.94-13.83-115.93-17.15-5.37-.39-15.32-1.25-27.78-3.78-4.21-.85-7.62-1.68-9.78-2.22,8.61-2.04,21.9-5.57,37.56-11.48,35.18-13.28,99.51-37.08,118.8-91.66,7.79-22.05,12.81-59.76-7.35-78.79-6.28-5.93-14.73-10.21-25.73-12.06-50.77-8.53-97.27,17.36-173.27,62.49-6.22,3.69-16.74,12.49-37.78,30.09-5.84,4.88-15.25,12.96-19.41,26.37-.82,2.63-1.24,4.87-1.48,6.37-.05,2.11-.01,4.53.5,4.61.61.1,1.45-3.18,2.33-5.28,2.73-6.48,8.01-10.09,11.56-12.67,23.19-16.86,33.2-34.03,63.24-43.41,4.47-1.39,11.38-3.24,20.22-4.3-16.87,6.29-24.68,14.89-28.68,21.71-4.45,7.57-3.72,12.34-9.09,18.91-8.23,10.09-16.77,9.95-27.51,14.49-31.13,13.15-50.92,43.82-73.5,67.5-15.21,15.94-32.04,30.93-49.04,44.96-2.29,1.89-17.2,12.47-17.47,13.54-1.16,4.64,18.44,1.47,16.08,9.96l-17.57,34.42c-5.76-4.06-27.66-18.89-27.03-26,.13-1.41,1.29-3.58,2.07-4.85,5.62-9.08,16.48-20.18,23.27-29.73,17.86-25.13,49.64-75.55,52.17-105.83,1.48-17.75-6.68-35.44-8.86-53.11-4.73-38.46,6.95-73.16,21.91-107.85-13.72-40.4-33.26-78.46-52.87-116.19L0,59.6c63.13,27.75,123.87,61.96,178.91,103.58,7.37,5.58,15.26,13.48,22.58,18.42.83.56.95,1.42,2.5.99,3.3-14.86,8.31-35.15,15.78-58.88,6.79-21.57,12.42-39.46,22.67-60.89,7.76-16.23,20.08-38.48,39.41-62.81ZM326.99,231.58c-.44-36.68-8.39-72.81-17.28-108.21l-28.7-106.78c-16.59,49.07-35,98.36-46.53,148.98-8,35.11-9.71,72.96-29.49,104l27.33-14.16c29.97-13.15,61.87-21.56,94.66-23.84Z"/>
  <path d="M57.4,583.48c11.26-1.52,19.46-7.28,24.22-11.04,26.24-20.7,64.11-59.62,84.37-71.56,8.36-4.92,17.33-8,17.33-8,4.29-1.47,9.68-3.32,16.59-4,13.18-1.3,14.31,3.39,27.56,2.07,6.91-.69,15.57-2.86,18.74-4.15.23-.09,1.81-.75,1.85-.67.05.1-2.45,1.34-2.89,1.56-18.25,9.08-36,19.11-54.1,28.47-53.56,27.72-71.63,45.57-125.83,66.71-4.19,1.63-7.62,2.91-9.74,3.69-4.84-1.33-9.68-2.66-14.52-3.98,3.43.82,9.33,1.84,16.41.89Z"/>
</svg>